/* XPM */
static char *mia___x__[] = {
/* columns rows colors chars-per-pixel */
"32 32 256 2",
"   c #020101",
".  c #090404",
"X  c #020B04",
"o  c #0A0A05",
"O  c #03040A",
"+  c #0A060A",
"@  c #050A0A",
"#  c #0B0A0B",
"$  c #110C0C",
"%  c #0B1307",
"&  c #0C160C",
"*  c #0F1B0F",
"=  c #13120C",
"-  c #0D0E14",
";  c #0E1810",
":  c #061C10",
">  c #131315",
",  c #181913",
"<  c #1E1D1B",
"1  c #191A14",
"2  c #201C1D",
"3  c #0E2619",
"4  c #152218",
"5  c #1A2119",
"6  c #202016",
"7  c #26251E",
"8  c #212C1E",
"9  c #37241E",
"0  c #1F1D20",
"q  c #1D1F2C",
"w  c #201E21",
"e  c #311D26",
"r  c #1C2122",
"t  c #1F282F",
"y  c #2C2324",
"u  c #242B23",
"i  c #2D2B2B",
"p  c #2B2427",
"a  c #342C2C",
"s  c #3B2927",
"d  c #2E332E",
"f  c #253D2F",
"g  c #35312C",
"h  c #2B2A35",
"j  c #20243F",
"k  c #322F30",
"l  c #3C2F36",
"z  c #2F3835",
"x  c #343533",
"c  c #3D3335",
"v  c #363C36",
"b  c #35343D",
"n  c #3D3C3B",
"m  c #3D3838",
"M  c #42363B",
"N  c #413B3E",
"B  c #2B4335",
"V  c #3D403A",
"C  c #3E4033",
"Z  c #49483C",
"A  c #222246",
"S  c #3C3A46",
"D  c #333244",
"F  c #3D3E50",
"G  c #3C4240",
"H  c #3F4B47",
"J  c #3C5343",
"K  c #434544",
"L  c #4B4245",
"P  c #424A43",
"I  c #4B4D43",
"U  c #4C474A",
"Y  c #4C4B4B",
"T  c #444A4A",
"R  c #574C47",
"E  c #4D534D",
"W  c #4E5A4D",
"Q  c #465149",
"!  c #505044",
"~  c #51504C",
"^  c #5A544E",
"/  c #5D594D",
"(  c #424C58",
")  c #534D50",
"_  c #5A4C52",
"`  c #544E58",
"'  c #4D5351",
"]  c #425051",
"[  c #555355",
"{  c #5A5656",
"}  c #525B54",
"|  c #505358",
" . c #5C5C5C",
".. c #555B59",
"X. c #624D54",
"o. c #635B5C",
"O. c #675656",
"+. c #4C6256",
"@. c #55635B",
"#. c #5A615B",
"$. c #646556",
"%. c #63645C",
"&. c #544F62",
"*. c #585767",
"=. c #444865",
"-. c #695C62",
";. c #765B60",
":. c #5C6364",
">. c #5F7463",
",. c #646463",
"<. c #6C6466",
"1. c #636A64",
"2. c #6C6B62",
"3. c #6D6569",
"4. c #656C6B",
"5. c #6C6A6B",
"6. c #706C60",
"7. c #72666B",
"8. c #726A6C",
"9. c #786B65",
"0. c #6C7063",
"q. c #6B776C",
"w. c #67796B",
"e. c #73746A",
"r. c #7B7B6E",
"t. c #787266",
"y. c #686A7F",
"u. c #776D71",
"i. c #7A6E75",
"p. c #736E7A",
"a. c #6C7771",
"s. c #747273",
"d. c #787377",
"f. c #727A75",
"g. c #7B7B75",
"h. c #747B7A",
"j. c #7B7C7A",
"k. c #7A7579",
"l. c #84736B",
"z. c #8D7075",
"x. c #817D74",
"c. c #847B7B",
"v. c #89797A",
"b. c #947D7C",
"n. c #967C7A",
"m. c #768777",
"M. c #7E8C7C",
"N. c #7B847A",
"B. c #808074",
"V. c #83837D",
"C. c #8B8A7E",
"Z. c #5F5F85",
"A. c #666283",
"S. c #757087",
"D. c #777696",
"F. c #887E81",
"G. c #877A81",
"H. c #807C93",
"J. c #837FA2",
"K. c #7E8180",
"L. c #7E8880",
"P. c #7D819A",
"I. c #838383",
"U. c #8C8284",
"Y. c #828C85",
"T. c #8C8D84",
"R. c #8D848A",
"E. c #848D89",
"W. c #8C8B8C",
"Q. c #83868D",
"!. c #918C84",
"~. c #9E878F",
"^. c #928B8D",
"/. c #87918B",
"(. c #8F978E",
"). c #92948A",
"_. c #97938B",
"`. c #838193",
"'. c #82829E",
"]. c #948C91",
"[. c #8D9394",
"{. c #939393",
"}. c #9C9496",
"|. c #9B9D93",
" X c #959D9B",
".X c #9C9C9C",
"XX c #94969A",
"oX c #A98B93",
"OX c #A3969C",
"+X c #A9959D",
"@X c #A39B9D",
"#X c #AE9C9A",
"$X c #B59B9C",
"%X c #9BA29C",
"&X c #96A29E",
"*X c #A8A89E",
"=X c #B9A19F",
"-X c #8A8CA5",
";X c #908BAB",
":X c #9494AC",
">X c #AA9EA3",
",X c #A79CA4",
"<X c #BB9CA1",
"1X c #9BA3A2",
"2X c #9CA3A9",
"3X c #A2A2A1",
"4X c #ABA4A4",
"5X c #A3A9A3",
"6X c #ABABA6",
"7X c #AEA4A9",
"8X c #ACABAC",
"9X c #B1A4A9",
"0X c #B3ACAE",
"qX c #A6B2AE",
"wX c #B4B9AB",
"eX c #B7B5A9",
"rX c #A4A7B0",
"tX c #A8A4BF",
"yX c #B4ABB1",
"uX c #B1ABB9",
"iX c #ACB2B2",
"pX c #B5B4B4",
"aX c #BCB4B6",
"sX c #B6B9B3",
"dX c #BEB3B9",
"fX c #B4BBBC",
"gX c #BCBBBB",
"hX c #B4B5B7",
"jX c #C0A8A6",
"kX c #C5ACAE",
"lX c #C3B8AE",
"zX c #CCAEB3",
"xX c #C1AAB0",
"cX c #C2BBB4",
"vX c #C1B5BA",
"bX c #C2BBBC",
"nX c #C4B3B6",
"mX c #BFC1B6",
"MX c #BFC2BD",
"NX c #B6C2B6",
"BX c #C4C0BD",
"VX c #BDBEC0",
"CX c #C5BDC2",
"ZX c #CBBEC4",
"AX c #D4BBC1",
"SX c #C5C3C4",
"DX c #CBC5C5",
"FX c #C7C8C3",
"GX c #CEC5CB",
"HX c #D1C6CB",
"JX c #D3CBCD",
"KX c #D4D3CF",
"LX c #D7CED2",
"PX c #D9CAD1",
"IX c #DAD2D3",
"UX c #E2D9DC",
/* pixels */
"    .       .   .   +     O O   X X       o     X   O   .       ",
"        .   .         #   O   @ @ : & & o     X   X   . . . o   ",
"  O               X X     % 4 4 3 3 % u 6   X X     @ +         ",
"  +                   & % 8 W m.w.B +.I Z C X X X X           X ",
"O O O   O       X # d v L.N.&XP f J m.m.r.6.0.W 4 @ +   $       ",
"  O             > b r H 2XT t ] +.>.C.C.N.$.0.w.N.a.        X X ",
"            - - D r H A.-Xj =.( @.M.q.C.t./ |.wXa.E.yX  #       ",
"          > h D A D *.P.D.A Z.P.[.M.! R B.lXeX_.1.1Xk.m i       ",
"          < i b S &.S.tX;XA.-X:Xh.t.lXO.l.lXlX! T..XR.-.ZXc .   ",
"      o = n i ].U p.uXp.&.`.D.H.I.%.9.9 n.n.^ C.aX,.G.i.9X4X. o ",
"    X   g a ^ g.g g.4X .).{.7XV.%.!.#X=Xn.jXZ ~.aX3.7.-.+XnX<.  ",
"      7 g ^ Z Z 6.*Xr.eX*XC.$.t.^.@XkXkXzX$Xs M 4Xu.].nX#XJXKX. ",
"      I i T.7 e.C._.$.eXeXZ m.C.OX9XxXb.<Xz.X.y L yXR.>X_ aXDX, ",
"@   r K n T.U ).wX0.).gXN.r.V.T.pX0X+XzXz.;.v.o.m d.vXyX7.o.g.x ",
"  O n ..4.j. .Y.6X[ I.fX4.:.Q.*.~.CXO.G.oXAXaXc.5.W.HXR.aX, |.v ",
"  @ @.]  X4.T iXfX| [.VXrXS uXXX&.,Xe X.~.nXv.o..Xp.bX^.HXM FX6 ",
"  0 hXx ' z @.fX1Xh.1XVX0XM yXU -.>XM >XdXu.4X,XfX[ 0XpXIXc.BXo ",
"  K SXS G 4.qX&XE.E.h.N.[ { 4XF._ nXl vXOX[ SXSX4X.XW.bX^.OXBX= ",
"+ Y {.U :.N. XfX..L.G K.g.{.0XV.g U.OX^.yX4XDXyX8XDX) U 9.BXcX. ",
"  w [. . .K.&XgX' 1X{. .k.6X%.N x.BX0X{ 4XJXgXDXOXM c.u.}.UXnX. ",
"- > W. .,.{  XhXT  .Y ' MXfXd s.6XsXqX6X*XJXdX_ a F.yXPXZXbXU.  ",
"  > ,X5.e.h pXhXU K  .[.sXFXQ } .X1.KXFXgX4XHXy G.CX>XZXIXaX2 o ",
"O   k Y 8X{ ).GXY .XW.8X1X#.Q P /.%X%.MXIXDXc.v.ZXCX-.CXaXGX+   ",
"      O y N d.CX7Xn ,.3X5X:.4.Q #.NX*XV.BXC._ vXAX_ d.7XLX3.+   ",
"    +     . l yXUXa { I.E.4.Y.L.w.(.sX(.e.7 OXHXU X.dXPX`   +   ",
"    O       . L 8.y U Y } ,.@.u H * E V ) 8.9XJXD +XZX3.    - + ",
"O   O     . .       k { x X   & & 5 @.V %.j.5.0X~.CX-.. # #     ",
"          .   . . #           X     Z Y 3XdXY DX,X) O         # ",
"    O                   .         o o x I.6XU >         #       ",
"                            .   X   # < @ #   #     o       o   ",
"O                   .         .   .   o +   @     @           o ",
"  O                     . . .   .   .                           "
};
