/* XPM */
static char *mia___x__[] = {
/* columns rows colors chars-per-pixel */
"48 48 256 2",
"   c #010101",
".  c #090506",
"X  c #030A03",
"o  c #090A06",
"O  c #04040A",
"+  c #0A0509",
"@  c #040A0A",
"#  c #0B0B0B",
"$  c #100D0E",
"%  c #021302",
"&  c #0B1407",
"*  c #11150D",
"=  c #0C0C12",
"-  c #131212",
";  c #151B13",
":  c #1D1B1B",
">  c #171616",
",  c #120C10",
"<  c #211B1D",
"1  c #240E1A",
"2  c #192816",
"3  c #122308",
"4  c #23251E",
"5  c #2C2A11",
"6  c #1B1A26",
"7  c #1C1936",
"8  c #2F1C26",
"9  c #1E2326",
"0  c #1D3126",
"q  c #242223",
"w  c #2B2326",
"e  c #25252A",
"r  c #2C2628",
"t  c #2C2B2B",
"y  c #252A26",
"u  c #332B2D",
"i  c #382827",
"p  c #2C332C",
"a  c #253425",
"s  c #35382E",
"d  c #2C2B34",
"f  c #272734",
"g  c #362D31",
"h  c #2A3437",
"j  c #353333",
"k  c #3C3334",
"l  c #3C363B",
"z  c #3C3B3B",
"x  c #353939",
"c  c #42383A",
"v  c #4A312B",
"b  c #6A3E3D",
"n  c #3D453D",
"m  c #39483A",
"M  c #3E5A38",
"N  c #2C4530",
"B  c #43463C",
"V  c #47452E",
"C  c #696B39",
"Z  c #3C3C44",
"A  c #383949",
"S  c #37364F",
"D  c #473E40",
"F  c #573C44",
"G  c #3C4443",
"H  c #3B5454",
"J  c #454244",
"K  c #4B4444",
"L  c #4D4B46",
"P  c #4C464A",
"I  c #4D4C4A",
"U  c #464948",
"Y  c #524C4C",
"T  c #554648",
"R  c #4C534A",
"E  c #485548",
"W  c #53534D",
"Q  c #575C46",
"!  c #4A4B54",
"~  c #544D52",
"^  c #594C55",
"/  c #4C5356",
"(  c #545353",
")  c #595455",
"_  c #5B5559",
"`  c #5D5B5B",
"'  c #575957",
"]  c #614A4A",
"[  c #63555A",
"{  c #625C5C",
"}  c #6A5558",
"|  c #735C4E",
" . c #586349",
".. c #58744A",
"X. c #5D695C",
"o. c #5A6458",
"O. c #476749",
"+. c #63635D",
"@. c #676657",
"#. c #647458",
"$. c #4E4A64",
"%. c #524B6E",
"&. c #595966",
"*. c #505573",
"=. c #635D63",
"-. c #665663",
";. c #5C6562",
":. c #596B64",
">. c #5A716B",
",. c #656163",
"<. c #6B6B64",
"1. c #6C6C6B",
"2. c #686768",
"3. c #716C6C",
"4. c #76666B",
"5. c #697768",
"6. c #75786B",
"7. c #696B75",
"8. c #796D74",
"9. c #756F74",
"0. c #6B7576",
"q. c #757373",
"w. c #7A7574",
"e. c #757D73",
"r. c #7C767B",
"t. c #7B7B7B",
"y. c #767B77",
"u. c #81665D",
"i. c #82776A",
"p. c #85787A",
"a. c #997B7A",
"s. c #88696B",
"d. c #A27B7E",
"f. c #6E844F",
"g. c #73846D",
"h. c #7C827C",
"j. c #7B8A7D",
"k. c #778578",
"l. c #6B8974",
"z. c #828556",
"x. c #83837D",
"c. c #82897B",
"v. c #928A7D",
"b. c #AA8C75",
"n. c #91A072",
"m. c #68728A",
"M. c #777689",
"N. c #747593",
"B. c #6D6A89",
"V. c #847D81",
"C. c #8C7885",
"Z. c #967E83",
"A. c #807C9D",
"S. c #837BA0",
"D. c #7B8784",
"F. c #7D9085",
"G. c #7B869A",
"H. c #6F8384",
"J. c #858384",
"K. c #8B8486",
"L. c #8B8C84",
"P. c #8B858A",
"I. c #8C8B8B",
"U. c #848986",
"Y. c #938B8C",
"T. c #988788",
"R. c #889488",
"E. c #91928A",
"W. c #87879A",
"Q. c #968C94",
"!. c #8A9393",
"~. c #959294",
"^. c #9A9394",
"/. c #9B9A95",
"(. c #9B959A",
"). c #9D9A9B",
"_. c #959796",
"`. c #A29C9E",
"'. c #A69799",
"]. c #B39799",
"[. c #AF8F8D",
"{. c #87AD9B",
"}. c #9CA49A",
"|. c #99A79A",
" X c #85B09C",
".X c #A2A19C",
"XX c #A7AA98",
"oX c #AFAB97",
"OX c #8688A8",
"+X c #9B9AA7",
"@X c #9290AB",
"#X c #A59DA1",
"$X c #AA9CA7",
"%X c #B79BA2",
"&X c #A59CB8",
"*X c #99A4A3",
"=X c #98B6A8",
"-X c #8BB2A0",
";X c #A4A2A3",
":X c #AAA2A4",
">X c #A4ABA4",
",X c #ABABA3",
"<X c #A7A6A9",
"1X c #ADA5A9",
"2X c #ACABAB",
"3X c #A0AFAC",
"4X c #B2ACAD",
"5X c #B8A8A9",
"6X c #A9B4A9",
"7X c #B6B4AC",
"8X c #A7AEB5",
"9X c #B5AEB1",
"0X c #BAADB2",
"qX c #B3A7B1",
"wX c #B5B3B4",
"eX c #BAB2B5",
"rX c #B4BCB1",
"tX c #BBBAB5",
"yX c #BBB5B9",
"uX c #BDBBBC",
"iX c #B6B6BA",
"pX c #AABBB3",
"aX c #C19E9C",
"sX c #C4A39C",
"dX c #C8ADAE",
"fX c #C1B5BB",
"gX c #C4BBBD",
"hX c #CBB5B7",
"jX c #D8B8B8",
"kX c #D0B1AE",
"lX c #9CC2AD",
"zX c #B7C4B9",
"xX c #C5C3BD",
"cX c #C3CDBE",
"vX c #A09EC6",
"bX c #BDBAC1",
"nX c #CABDC3",
"mX c #C5BCC4",
"MX c #D4BEC1",
"NX c #BCC9C2",
"BX c #C5C3C3",
"VX c #CBC3C5",
"CX c #CCC5C9",
"ZX c #CDC9CA",
"AX c #CBCAC5",
"SX c #D1C6CA",
"DX c #D3CBCD",
"FX c #D7C7C6",
"GX c #D6CDD0",
"HX c #D9CED2",
"JX c #D9D2D5",
"KX c #D7D4D5",
"LX c #CFCDD2",
"PX c #E1D5DB",
"IX c #E6DADE",
"UX c #E6E2E3",
/* pixels */
"  O O                       O   O O .   X .   O O   X X X                                       ",
"O       O                     O O + +       O @ X X X % X X ,   X       X     X                 ",
"                                X     .   @ * X X % % 3 a   @     X           .                 ",
"                                X   @ - #   & 3 % % M 2 % X @ @ X X o X                         ",
"                                  X     ; p N ..f.O.M 0 N h * & X   * &   X #   .               ",
"                            O o % X 9 0 m D.R.g.M N N :.E E E  . .& X & o                       ",
"                          O > 6 E 0 :.k.U.tXx.p H H 0.>.>.n...f.#.5.o.2   o                 . . ",
"                      O O = f Z h :.bX!.X./ y / S *.*.0.F.M n.f.#.o.X.X.<.B   X                 ",
"                O O O O 6 ! f f S $.W./ y p S H *.m.G.8XrXn.C z. .6.c.g.E.t.h.    . .       +   ",
"        O         O O 6 J 6 7 S %.S.@Xf 9 A *.*.*.G.D.;.E.oXb.5 6.}.}.,Xq.E._.tX    $ .       . ",
"  O O   O       O - e e l d S ! %.S.@X6 S *.%.N.m.N.U.v.i.5 @.v.`.}.>X;Xo./.#X1Xu w   .     *   ",
"O   O           Z 2.e 6 d f A &.N.vXA.7 %.B.N.W.+X3Xe.V Q | oX5XtXuX/.).` #X).9.q ` 3.  $ .   . ",
"  O         X . e > z y d ~ / _ &X@X&XS m.OXOX8Xk.#. .oX5 u.a.kXgX9X3.=.Q.r.9X+Xg (.GXq.  - # . ",
"            # ; j j Y J z ` 7.~.CX@X%.-.G.W.G.H.>.j.oXoXv b b d.T.V.c V.$Xr.$X(.^ P.yXyX  $ o X ",
"            * w z : 6.x.p +.w.9X1.,.&.C.B.OX!.*XF.E 6.6.v | b.[.} -.8.qXyX8.$X4.P (.;XyX).  X o ",
"          X < s p s /.<.w L /.XXV w.Y.W.*X*X=X:.:.k.E.[.sXsXb.kX-.^ C.$XyXP.Q.^ ^ V.4XeXBXY   X ",
"          r c t B L T B ] i.,XhX+.7X.XoXg.c.X.X.k._.Q.qXMXdXaXaXa.g ^ C.yXY.` $XY.Y.:XfXBX2XO   ",
"X     X $ c s ' ;.c B ] u.v.FXB Y.GXFXoXQ 6.g.c.I.*XC.fXhXdXjXkX} Y r u `.mXK ^.VX0XQ.gXZXBX> X ",
"        u k j 1.h.p ) i.a.'.x.Q .XgXxX@. .6.c.U.<X~.bXmX].].aXd.p.T w w K :XyXr.eX[ [ #XKX4X( @ ",
"  o   # { q x 1.L.x ` `.,X7X; L.tXxX.Xs c.6.6./.<XCXQ.$X%Xs.s.v s.8.c < t ,.4X~.5XK.~ ~.+.;X,.  ",
"      < h.y x t.3.W e.>XzX-Xs 6XtXgX,.) /.E.<./.@XPX-.C.MX%X].Z.'.$X4.` I q._.VX_.yXY.Y g J.q.@ ",
"      q ' G ' _.1.( X.R.NX-XE j.iXuX2.L w.c.w.~ Z.MXC.-.[.} [.jXFXeXp.q.1.r.;XZX;XCX:Xt u I.1.  ",
"    , z ! H y.;XJ L l.=XlXl.m <.(.bX@Xe W K.VX_ C.C.nX8 F b Z.jX5X'.J.q.I.q.2XbX;XVXwX< L uX1.  ",
".   > q.y.x D.*Xl G !.=XF.O.F.<XiXKXuXU <.0XFXi F %X$X1 F C.kXFX[ r.K.t.1XU.1.tX^.CXZXY ~.CXp O ",
".   l 4X0.h >.G q ) 3X-X{.O.j.|.8XLXbXl P yX'.q 4.qXZ.8 4.FXdX'.^ 2XgXq.zXP.( wXwXBXVX3.wXuX- # ",
". . ! wX0.G G l 1.D.pX=X-Xl.F.U.P.+XP.e &.#X1Xu -.mX[ c ].0X].F w.DXGXJ.2XiX/ ;XwXHXDX^ BXiXq   ",
". : 8.bX7.x h U t.!.}.-XH.>.F.R &.=.&./ (.9XZX) F ^.4X[ ^.hX'.[ 0XDX`._./.tXU.2.2X4X2.K.VX}.q . ",
"  $ _ Q.&.f ;.U.y.<X<XNXD.E F.m &.Q.J.q.4XyX).Y 6 { ^.:X<.0X`.^.:XgX4XiX).BXP._ { u 2.eXVX1X< X ",
"  @ Z P.t.J ! 7.7.y.!.wXx.+._.3.t._ 9.J.*XI.o.n 5.XXtXBXc [ 5XHXVXDXfXZXwX_.r K ) w '.JX$X1X#   ",
"  # 6 &.=.=.U J.D.|.BX~.k L R.,XJ.g P.BXBXR j ;.U.XXKXXXx.<.2XDXGXP.4X`.~ j 1.Y.fX8.0XSXgX^..   ",
"O = 9 7.! =.! 2.! !.CX$XT 4.o.R i { wXBXtXy a |.|.|.cXcX,Xc.).JXSX4XY.: t ,.4XfXHX:XnXSXgX^.    ",
"  O e P.-.9.P._ 9 R.gX0Xc v n L t.'.xXBXJ.a o.j.6X5.zXrXzXGX`.9XwXUXc l ' I.JX4XVXSXPXnXhX, .   ",
"    - V.=.q.r.U U 2XAXKXD ,.1.1.3.E.,XxXE.B 3 g.j.o.g.AXVXBXSX0XgXmXj q.`.:XnXp.nXIXSXgXgX  + . ",
"  +   e r 9.;XI.L V.uXKX' r.;XJ./.gX5XL.o.E a g.j.zXR.L .XgXJXGXKXV.) (.SXnX[ _ '.0XfXDX=..     ",
"  +       r ( ` ! { ).LX1X+.) ` .X5X.X+.E X.B B k.XX6XE.( nXDXCX,.t K.ZXDXnXc p.Y.0XSXSX$ + $   ",
"              $ t 1.4XBXBXl > ` K.7XAX+.#.j.5.m M |.6X.Xx.P.5Xp.t J.BXtXfXl ^ '.gXDXGX) .       ",
"                # q q.BXUX1.r J p.J.E.R 6.U.c.k.5.R.}..XXXw.p.j J `.gXVXP g p.gXSXPXu + .     X ",
"X         .     #   q ~.BXt.j l ~ l ` 7.5.k.e.o.n a E B ` W v B q.4XKXeX< 4.#XDX0Xc     +     # ",
"      # .         X - - - # - I J.K.J.( @ ; 0   2 E 4 W & L L 3.Y.4XeXDXu Q.DX5X2.. . $         ",
"  +             X         O X t J / :   #   O 3   o 4 o.) L <.p.p._ #XeX'.9X^.,.. #         #   ",
"                            X .   O     O       o   % W +.Q x.tXp.w :XVXCX4Xq .           O X X ",
"                                O                   X w W ' .XxXKX,.p.0Xw u   . .             O ",
"                                O               X       4 B E.6Xw.# $ . .   $                   ",
"                                    O                 * o X   X X -       .                     ",
"                                                  X   o   X X o           .                     ",
"                                                    X   X   X   #   # #       O                 ",
"                                                    X               .   X                       ",
"                                                      X   X             X                       "
};
