/* XPM */
static char *mia___x__[] = {
/* columns rows colors chars-per-pixel */
"64 64 256 2",
"   c #010101",
".  c #0A0505",
"X  c #040A03",
"o  c #0A0A05",
"O  c #04030A",
"+  c #090609",
"@  c #0B0B0B",
"#  c #070A08",
"$  c #110C0B",
"%  c #081505",
"&  c #12170D",
"*  c #0B0911",
"=  c #131313",
"-  c #1B1B1C",
";  c #181816",
":  c #0D1412",
">  c #221C1C",
",  c #271417",
"<  c #340E0F",
"1  c #13220D",
"2  c #1A2715",
"3  c #143219",
"4  c #302A0F",
"5  c #1A1A25",
"6  c #241E25",
"7  c #2A1D30",
"8  c #1C2726",
"9  c #123924",
"0  c #242324",
"q  c #2B2525",
"w  c #2C2B2C",
"e  c #282729",
"r  c #322D2B",
"t  c #352726",
"y  c #273429",
"u  c #35362C",
"i  c #282737",
"p  c #382C35",
"a  c #293335",
"s  c #343333",
"d  c #3B3535",
"f  c #3C3A35",
"g  c #3B363A",
"h  c #3C3B3B",
"j  c #35373A",
"k  c #423D3D",
"l  c #463637",
"z  c #4C2F31",
"x  c #663C39",
"c  c #422B1E",
"v  c #1A4816",
"b  c #284627",
"n  c #2C4436",
"m  c #384438",
"M  c #36522D",
"N  c #1C4726",
"B  c #43443D",
"V  c #47473B",
"C  c #4D5439",
"Z  c #6E4937",
"A  c #4E6A3D",
"S  c #3D3C42",
"D  c #363846",
"F  c #36354E",
"G  c #423D42",
"H  c #453F48",
"J  c #513D4A",
"K  c #3C4542",
"L  c #365B45",
"P  c #3C4451",
"I  c #444444",
"U  c #4B4445",
"Y  c #494B46",
"T  c #43444A",
"R  c #4C4B4B",
"E  c #494849",
"W  c #524C4C",
"Q  c #564848",
"!  c #4B574B",
"~  c #56534C",
"^  c #4A4B56",
"/  c #534D52",
"(  c #574B54",
")  c #4D5856",
"_  c #555253",
"`  c #5B5354",
"'  c #5C5B5B",
"]  c #575958",
"[  c #625C5C",
"{  c #645858",
"}  c #7A5559",
"|  c #674D4C",
" . c #4A6247",
".. c #5A684A",
"X. c #576657",
"o. c #55774C",
"O. c #64685A",
"+. c #667856",
"@. c #716848",
"#. c #4A4965",
"$. c #5A5A66",
"%. c #585876",
"&. c #4A5167",
"*. c #665A63",
"=. c #615E75",
"-. c #586566",
";. c #5A7264",
":. c #5D6D76",
">. c #666463",
",. c #6B6465",
"<. c #6C6B65",
"1. c #64646B",
"2. c #6C6B6B",
"3. c #686768",
"4. c #736B6C",
"5. c #756869",
"6. c #6B7567",
"7. c #76776B",
"8. c #6A6A76",
"9. c #736D72",
"0. c #7C6D74",
"q. c #6B7477",
"w. c #747373",
"e. c #7C7575",
"r. c #747A73",
"t. c #7B7B75",
"y. c #7B747A",
"u. c #7D7B7B",
"i. c #75767B",
"p. c #855654",
"a. c #835D67",
"s. c #837C7D",
"d. c #847578",
"f. c #8B7072",
"g. c #896452",
"h. c #678354",
"j. c #578E6B",
"k. c #69846D",
"l. c #75836A",
"z. c #7B8778",
"x. c #6E8C73",
"c. c #6A9D65",
"v. c #84847C",
"b. c #88927A",
"n. c #829C6F",
"m. c #A8857E",
"M. c #87A879",
"N. c #5C5E81",
"B. c #7B7885",
"V. c #787299",
"C. c #6E6B8B",
"Z. c #7B7AA8",
"A. c #5C6880",
"S. c #847D83",
"D. c #877B83",
"F. c #8B7C90",
"G. c #A97D85",
"H. c #7C8486",
"J. c #788D93",
"K. c #77AE8E",
"L. c #848383",
"P. c #8B8485",
"I. c #848B83",
"U. c #8B8489",
"Y. c #8C8B8C",
"T. c #868789",
"R. c #938C8D",
"E. c #958689",
"W. c #899787",
"Q. c #96968B",
"!. c #898996",
"~. c #948E91",
"^. c #9B8A94",
"/. c #8A9498",
"(. c #959393",
"). c #9A9394",
"_. c #9D9C9B",
"`. c #989898",
"'. c #A3959A",
"]. c #A39C9E",
"[. c #A79A9A",
"{. c #B59397",
"}. c #B0888E",
"|. c #98A799",
" X c #8BA790",
".X c #A3A29D",
"XX c #A6A79A",
"oX c #B5B196",
"OX c #8487A9",
"+X c #9898A6",
"@X c #8F93B2",
"#X c #A59DA2",
"$X c #A89DA7",
"%X c #BF9FA4",
"&X c #9BA3A4",
"*X c #94A8AF",
"=X c #A5A2A2",
"-X c #AAA3A4",
";X c #AAAAA5",
":X c #ABA5AA",
">X c #ACABAB",
",X c #A4A6A9",
"<X c #B3A3A5",
"1X c #B4A5AA",
"2X c #B3ACAD",
"3X c #BAABA8",
"4X c #A7B5A8",
"5X c #B5B5AB",
"6X c #ABABB4",
"7X c #B5ADB1",
"8X c #BAADB2",
"9X c #B5AAB7",
"0X c #ADB3B3",
"qX c #B5B2B3",
"wX c #BBB4B4",
"eX c #BCB4BB",
"rX c #BDBABA",
"tX c #B8B8B7",
"yX c #C99BA4",
"uX c #CBA6A9",
"iX c #DAACB7",
"pX c #C2B6B9",
"aX c #C3BBBC",
"sX c #CABBBC",
"dX c #C5B3B6",
"fX c #CBB1B4",
"gX c #92C4A4",
"hX c #B9C5B8",
"jX c #ABCBB2",
"kX c #9BC399",
"lX c #C6C1BC",
"zX c #CFCBB1",
"xX c #BCB8C4",
"cX c #A7A4C1",
"vX c #C3BDC2",
"bX c #CBBEC2",
"nX c #C3B7C1",
"mX c #D8BCC4",
"MX c #BDC8C5",
"NX c #C5C2C3",
"BX c #CBC3C4",
"VX c #CDCACB",
"CX c #CBC7C9",
"ZX c #D2C4C6",
"AX c #D3C7C9",
"SX c #D3CBCC",
"DX c #D8CACA",
"FX c #D4D2CE",
"GX c #CDCAD2",
"HX c #D4CED0",
"JX c #DBCED5",
"KX c #DBD4D5",
"LX c #D8D5D5",
"PX c #E3D9DA",
"IX c #E9CBCD",
"UX c #E0E2E2",
/* pixels */
"                                                  O O O       O O * O   .     .   O O O O O .                                   ",
"                                                O O O   O X     O O O       o       O O O O                                     ",
"                                                + O O   o +   X * O = # o &   & X X X X O   X                                   ",
"                                                          % % % O X     & V o   X X X X   X   X                                 ",
"                                              X   O & $ X X % 1 1 % % L 2 % X X % X X X O   O   O                               ",
"                                                o o   % & 2 u b v v v N v ..b b 3 % X X X O O O O O   O   O                     ",
"                                    O O       . X $ & y u m 7.l.c.c.h.N M M % 3 1 % 1 & X = 6 7 O         o                     ",
"                                    . + + + @ * w y 2 ! W. X Xk.L v 9 L ;.n X.!  . .+.C 1 X X X O O X                           ",
"                                      O 5 S / e E 7.z.I.hXhX) 9  . .&.-.-.B.X.z.X.+.h.h.o.n.2 X       O             O X       O ",
"                      O       O     + e ( D D i.0X|.Y.H.q.y 8 :.n P D 8.=.,X/.v.jXn.h.A M A h. .! - o     o O                 o ",
"                        O   O   ; + h F i 7 F *.qX&X8.m K 8 P P &.%.C.8.B.i.O.M @.+.o.A l.h...6.z.Y.>.o   o       + O   X   O   ",
"                        X O     - _ T 5 D F F #.!.1.K 8 8 D &.&.%.A.A.!.:XlXuXXX+.n...@.+.7. Xz.P.L.T.Y.=     O           O O o ",
"          O           #   O   w h a 5 5 F F =.OX6Xj 5 i F P #.&.&.A./.B.>...oXzXoXu m v._.XX=X`.e.~.I..XCXX   X * X     O     O ",
"                  O       - = s y e 5 F #.#.=.F.@Xi i i &.%.%.N.A.8.q.`.W.zX@.v C C O.P.=X).xXeXw.2.=X&X0XW         + O     O   ",
"      O           O   * w s w 8 h ^ F F F N.C.@X@X5 i F N.N.Z.Z.J.OXH.v.O.oX4 4 v.n.dX4X>X+X&X+X] >X_._.qXr s / =     O     :   ",
"                O   + S 9.a w 0 6 5 D #.#.C.Z.cXOX7 i %.C.Z.Z.@XcX*X4XO.C c @.g.oXfXoXlXxX6X(.T./ I.;X_.t.; R ] T.0   = @     O ",
"O           O   O O O s e h > 0 q B $.&.#.OX+X+XxX5 %.V.F.Z.@X@Xz...h.C zX4 Z p.m.oXlXlX0XL.B.9._.2._.:X>Xe ` #XHX>X$ O o $ #   ",
"            O       K - s - ~ u d W ^ $.!.@XUX9XV.H F.V.Z.@X@X*Xx.M.n.oXoXc Z p.x } {.XXeX*.p 1.Y.S.P.tX7Xs 9.R.#XLXY.o @     @ ",
"          O     O 5 - T - k ~.{ u ,.5.F.+XJX@X1.D *.C.F.@XZ.@XA. .K.A M.oX4 < } p.m.E.5.' k 5.].7X=X/ =X].r w.].2X2X-XO O   -   ",
"          O     ; 2 I d 0 W .X0.r V ,.Y.6X+XT ( ` S.D.y.F.@XJ.@XW.X.C v.f.c x p.}.m.iX~ ` W ).1XeX-XI qXS.h 5.#X>X7XrX_.$   @ @ ",
"              + 2 s e r d <.XX{ t V ~ R.eXk U S.R.R.Q.;X(.*X0X:.-.;.H./..X<X{.yX}.{.iX| ~ <.Q.;XNXNXG 1XG G 4.P.:XrX-XvXR .   . ",
"            o 5 h - q w ` e.,.V l | 7.oXDXV e.].wX-Xv.O. X|.-.) C./././.+XeXmXuXG.yXiXf.V ' d.Q.wXNX' 2.^.` D.4.'.:XAXNXrX  +   ",
"        O   = s f B f ' V r l V 5.| }.zXoX{ [.CXE.zXXXl.7.C X.H.!.!./.&X6XrXIXiXiXG.iXg.l t f s.-XHX[ ` [.-X8X8X1X2XZXvXlX6   . ",
"        X   ; I q ] ,.4.u l ~ O.{ b.Q.zXl s.<XZXZXIXM.C ..l.W.H.!.+X/.*X6XxX%XmXiXiXuX| Q l 2 u R.qX1X` ~.8XDX-XR.7XKXaXHX' .   ",
"  X   +   ; j s w ] P.7.r ! ' s.v.'.3Xf.V v.<XAXAX].m ..7.b.v.L.$X$X,X,X0XNXD.uXuXuXG.D.z 7 w w U R.aX#X,.8X8X( ` ^.8XKXnX_.    ",
"o         h 3.w s I v.r.V m O.v.'.b.XXo d.[.mXbX>X[ c v.+.b.l..X'.eXtX2X>XaX} a.G.p.z f.0.l - 6 q [ '.CXE.^.aX` U s.aX~.=XNX.   ",
"    O o   I w.@ h ] T.z.Y m H.hXhX5XQ.l D.wXnXeX>XB A l.b.X.v.Q.:XsXsX<.[.dX{.E.f.c x ^.d.W ` 6 q E w.].wXs.bX$X,.s.9.k v.eX=   ",
"+       - ' Y.5 h w.r.2.Y ] I.4XtX|._.s 9XxXbXxX>.f 7.;X|.<.2.'.'.bXlX` <.fXIX{.}.yX[.[.qXu.8.*./ ,.S.R.JX).].SX^.4.r r S.eX;   ",
"    O O ; S i.K s `.`.6.! X.k.|.hX4X+XK C.0XxX,Xu.j r.z.2.H.~ 4.'.%XmX*.{ f.{.} {.fXfXNXrXY.F.*.9.w.P.tXNXeX`.SX2XI w r s.VX= + ",
"+ *   * s ^ ] h 3.,XH.m ! ;.z. XjXMX) D 1.T.tXxXY.- P ^ Y.>X].B 0.9XmX1Xz } a.x f.<XBXVX7XY.D.y.S.9.L.2XBX>X-XLXvX> 6 h _.NX; O ",
"O O   * S $.^ T T.0XW.a L ;.&XjXjXK.9 -.B.!.xXeXtX$.e $.+XvXSXU ( *.F.fXJ , z } f.fXLXT.T./.{ d.(.Y.e.~.HX-XR.VXSXk r U.HX_.&   ",
"O   O e 8.~.' S i.|.q.a j k.|.gX XL -. XcX6XNXLXVXH.8 q.0XGX-X, J '.uXF.< z a.G.3XZXrXh u.7X*.U.2X:X' u.2XvXS.KXLXw.R 0XrX2.    ",
"O   * T `.:X^ D 1.' I 8 n J.jXK.K.j.M K.+X$XxXJXGX$.D ] 6XwX5., | $XuXF.p J G.mXdXZX5.W ).SX`.i.2XLXR ] 2XNX.XNXKXe.u.qXBXW o   ",
"O O O ] xX+XS H G S T Y ;.gXjXgXK.j.o. X`.^.$XbXxXD 8 ] >XzX| t } '.fXG 7 f.9XnX%X'.u 4.NXLXGXw.qXNX,.` _.qXrXKXPX,.e.SXBXU   o ",
"  O 5 u.xX!.8.S p p R L.*XkX|. XgXj.k.H.z.S.B.9.=.w K -.(.sXuXt ( ^.mX5.p D.iXnX[.[ Q XXSXrXNXH.=XrXwX] ).lX=XAXwXU P.KXlXf o . ",
"O   w B.6X1.S.7 ^ H / u.`.,X`.4Xj.o.z.r.E ] 9.1.=.] 8.(.SXsXsXl G 0.#X8X5.0.9XnX<X` 7.2XVX>X>X`.Y.qXFX7.[ P.NX:X<.[ -XSXqXU . . ",
"  O e 3.,X8.E i { D.D.D.+X8X2XhX&XB z.L.I Y q.u.L.i.(.qXwX-X^.| > V s..X$X( ^.nX-X).R.wXVX`.eX7X_.>XBX~.O.[ ` t ` =XlXBX-X`     ",
"  . e R !.,Xp S ^ 0.*.*.*.d.).1XT.s e.Q.] _ r.I.u.2.s.#XQ.T.s.u V O.`.XXmX( J U.<XDX3XlXAX#XCXCX].tX2Xs r ,.q t e.AXSX.XwXk o   ",
"    - j 3.,XH ( H B.B.D.#X$X8X3Xs.Q v.].Q.(.4.V [ _.).pX`.T P K I.|.4XFXLXr.U W XXSXsXlXtXrXCXxXNXe.d k ` s.5.k ].BXSX].aX;     ",
".   O i $.8.^ $.j B.B.0.:XnXAXF.z l d.R._._.X.w P.sXwXVXY j y i.l.|.jXLX;Xu._.4.R.FXPXKX~.~.6X).I f U s.).pXpXe.3XSXsXCX;X$     ",
"  . = e *.] E $.T 8.-.) /.CXvX:XJ ,.9.2.] Y q { <XDXsX2XB : L K. X X4XPXhX|.:XL.'.BXPXlX1XNX` w 0 k e.;X2XBXPX^.aXZXSXwX2X  X   ",
"  . = w B.8.T u.H.q.K w 8.eXeX/.E / s w f Y v.R.sXDXdXs.y n J.K.hXl.XXjXCX>XtXtXv.BXlX2XUX).q q d <.#XSXBXsXsXZXDXKXpXNXf =   o ",
"  .   w ~.Y.T H.J.u.n a /.MXvXGXg S E R 2.7.).<XfX3XAXz.y ;.9 K.W.z.+.jXhXCXLXSX5X2XQ.aXKX,.- _ ,.).2XBX8X3XJXDXPXbXsXqX        ",
".     , 4.u.h H.B.X.D ) &XVXGXCXR ' w.u.2.,.5.'.[.bXlXu.) n 9 j.x.W.V z.qXVXNXxXBXZXwXZXCXW / u.]._.DX8X{ wXDXJXDXbXpX1X.   X   ",
"      . 6 k g S..X&X-.! Y.0XrXKX/ 2.R.=XU.U.7X7XpX2Xs.<.n n 1 x.M.XXtX7.R _.NXeXKXJXwXPX.Xq 4.-XKXwXwX{ { D.sXpXpXZXsX4.  $   X ",
"  X O     $ > U s.T.w.Y R T.eXSX;X' u.9.,.S.rX8X=Xu.s Y O.m n 6.b.;XhXXXT.U ^.JXJXPXpXs.r [ `.rXNXVXZXd 5.d.f.3XBXZXZX$     X   ",
"X         . . . > f h I 3.=X3XaXKXk ( g ` U.$XtX,X&XT 3.r.O.V M V Q.wXwXqXk D.eXbXBX'.t W Q..XLXKXKX[ l 0.1X'.DXPXfXd.    o   X ",
"X     O . . . .     & u ` Y.wXPXAX[ d , / !.(.6XVXr.) t.l.z.O.V C t.;X5X).aX` $X$X-XU d 4.2XSXaX8X,.; [ [.sXbXDXAX~.. o         ",
"                      : r 3.].NXLX>Xh e I 0.U.R.,XB 2.t.v.W.z.6.O.l.oXXXhX2X(.t.P.[ , U ).rXDXsX` t Q D.7XpXPXHXU $   .   X   O ",
"                  O +     = >.tXGXGXi.j s >.[ f 4.~ 6.O.t.W.Q.b.6.X.V O.f O.(.' h q Q ,.<XsXDX[., d S.'.ZXPXVX9.$   O     o O X ",
"                      o   + I T.>XL.- 6 r [ E f W ,.t.<.6.X.m 1 1 C   m O.u u k k W [ s.<XlXAXlX6 *.E.wXZXNXk .     +     O o X ",
"                                      w R 9.P.E.R.O.; X & ; 2 X & O.2 2 Y ; u Y R w.0.].5XwX5XpXQ u.aXnX:XrX  @ =         X O   ",
"                        X O   X     $   d U *.W q @ . o # X % : X % & u O.Y Y ) ,.<.P.w.,.s.qX2XR.R.NX-XL.0   . .               ",
"                                    +   .   . $ =   X o   X X X X & % X ) z.u Y <.T.,X{ w s.wXBXNX-XCX0 = O       O         @ + ",
"                              O   @   @   .     .   @ +           % X % u 2.k H.I.NXlXY.s t.qXSXMX|.u.O   O   O   @ X       @ @ ",
"                                O   X O .               O     X X X   X & ] Y O.`.hXFXFX2.W ,X(.- @ +     X       O     O       ",
"                                                      O   O         X   X & j X.R.hXtXt.0 ; = :   X     X                       ",
"                                                                      X @ @ X X @ 2 - o                                         ",
"                                                                X       X & = o X   X   O X + +       X                         ",
"                                                                    X     o o o o o @   X       X                               ",
"                                                                          X         X       O                                   ",
"                                                                            o .             O                                   ",
"                                                                      .                                                         ",
"                                                                O               X     O   O O                                   "
};
