solid
  facet normal 0.408248 0.408248 0.816497
    outer loop
      vertex 0 0 1
      vertex 2 0 0
      vertex 0 2 0
    endloop
  endfacet
  facet normal -0.408248 0.408248 0.816497
    outer loop
      vertex 0 0 1
      vertex 0 2 0
      vertex -2 0 0
    endloop
  endfacet
  facet normal -0.408248 -0.408248 0.816497
    outer loop
      vertex 0 0 1
      vertex -2 0 0
      vertex 0 -2 0
    endloop
  endfacet
  facet normal 0.408248 -0.408248 0.816497
    outer loop
      vertex 0 0 1
      vertex 0 -2 0
      vertex 2 0 0
    endloop
  endfacet
  facet normal 0.408248 0.408248 -0.816497
    outer loop
      vertex 0 0 -1
      vertex 0 2 0
      vertex 2 0 0
    endloop
  endfacet
  facet normal -0.408248 0.408248 -0.816497
    outer loop
      vertex 0 0 -1
      vertex -2 0 0
      vertex 0 2 0
    endloop
  endfacet
  facet normal -0.408248 -0.408248 -0.816497
    outer loop
      vertex 0 0 -1
      vertex 0 -2 0
      vertex -2 0 0
    endloop
  endfacet
  facet normal 0.408248 -0.408248 -0.816497
    outer loop
      vertex 0 0 -1
      vertex 2 0 0
      vertex 0 -2 0
    endloop
  endfacet
endsolid
